<svg xmlns="http://www.w3.org/2000/svg" width="64" height="64" viewBox="0 0 64 64" data-mark="L1" aria-hidden="true" focusable="false"><defs><clipPath id="tr-l1-R0-tile"><rect x="0" y="0" width="64" height="64" rx="15"></rect></clipPath></defs><g clip-path="url(#tr-l1-R0-tile)"><rect x="0" y="0" width="64" height="64" fill="#FDFBF7"></rect><defs><linearGradient id="tr-l1-R0-sky" x1="0" y1="0" x2="0" y2="1"><stop offset="0%" stop-color="#FFF3DC"></stop><stop offset="100%" stop-color="#FDD9A9"></stop></linearGradient><linearGradient id="tr-l1-R0-sea" x1="0" y1="0" x2="0" y2="1"><stop offset="0%" stop-color="#AEE5DC"></stop><stop offset="100%" stop-color="#3FA694"></stop></linearGradient><linearGradient id="tr-l1-R0-beach" x1="0" y1="0" x2="0" y2="1"><stop offset="0%" stop-color="#F7EEDC"></stop><stop offset="100%" stop-color="#E8D9BC"></stop></linearGradient><linearGradient id="tr-l1-R0-road" x1="0" y1="0" x2="0" y2="1"><stop offset="0%" stop-color="#0B7458"></stop><stop offset="100%" stop-color="#0F2E28"></stop></linearGradient><clipPath id="tr-l1-R0-disc"><circle cx="32" cy="32" r="30"></circle></clipPath></defs><g clip-path="url(#tr-l1-R0-disc)"><rect x="0" y="0" width="64" height="28" fill="url(#tr-l1-R0-sky)"></rect><circle cx="32" cy="28" r="10.5" fill="#FFC65C"></circle><rect x="0" y="28" width="64" height="9" fill="url(#tr-l1-R0-sea)"></rect><rect x="0" y="27.2" width="64" height="1.6" fill="#FFF6E4" opacity="0.9"></rect><rect x="0" y="37" width="64" height="27" fill="url(#tr-l1-R0-beach)"></rect><rect x="0" y="36.4" width="64" height="1.2" fill="#FFFFFF" opacity="0.75"></rect><path d="M32 37 52 64H12Z" fill="url(#tr-l1-R0-road)"></path><g fill="#FFF6E4"><rect x="31.3" y="41.5" width="1.4" height="2.6" rx="0.7"></rect><rect x="30.8" y="47" width="2.4" height="4" rx="1.2"></rect><rect x="30.1" y="54.5" width="3.8" height="5.8" rx="1.9"></rect></g></g><circle cx="32" cy="32" r="29.1" fill="none" stroke="#0F2E28" stroke-opacity="0.14" stroke-width="1.8"></circle></g><rect x="0.75" y="0.75" width="62.5" height="62.5" rx="14.25" fill="none" stroke="#0F2E28" stroke-opacity="0.1" stroke-width="1.5"></rect></svg>
